<?xml version="1.0" encoding="iso-8859-1"?>
<!-- Generator: Adobe Illustrator 19.0.0, SVG Export Plug-In . SVG Version: 6.00 Build 0)  -->
<svg version="1.1" id="Capa_1" xmlns="http://www.w3.org/2000/svg" xmlns:xlink="http://www.w3.org/1999/xlink" x="0px" y="0px"
	 viewBox="0 0 512 512" style="enable-background:new 0 0 512 512;" xml:space="preserve">
<path style="fill:#818F99;" d="M465,376H116.089c-37.218,0-68.318,29.476-69.026,66.687C46.341,480.683,77.042,512,114.88,512
	h317.468C450.381,512,465,497.381,465,479.347V376z"/>
<g>
	<path style="fill:#C5D3DD;" d="M450,0H117.008C78.344,0,47,31.344,47,70.008v371.576c0,4.331,1.711,8.561,4.956,11.429
		c2.758,2.439,6.244,3.763,9.882,3.763c0.635,0,1.247-0.04,1.883-0.122l0.315-0.042c7.228-0.928,12.736-7.088,13.068-14.368
		C78.022,422.017,94.612,406,114.88,406H465V15C465,6.716,458.284,0,450,0z"/>
	<path style="fill:#C5D3DD;" d="M286.353,376H116.089c-37.218,0-68.318,29.476-69.025,66.687C46.341,480.683,77.042,512,114.88,512
		h171.473V376z"/>
</g>
<path style="fill:#F5F5FD;" d="M286.353,0H117.008C78.287,0,47,31.502,47,70.224v371.553c0,4.312,1.747,8.414,4.984,11.262
	c2.754,2.423,6.229,3.738,9.854,3.738c0.635,0,1.247-0.04,1.883-0.122l0.315-0.042c7.228-0.928,12.736-7.088,13.067-14.368
	C78.022,422.017,94.612,406,114.88,406h171.473V0z"/>
<path style="fill:#7C8388;" d="M231.368,136.507c-20.285,0-36.789,16.503-36.789,36.788s16.504,36.789,36.789,36.789
	s36.788-16.504,36.788-36.789S251.653,136.507,231.368,136.507z M231.368,180.084c-3.743,0-6.789-3.046-6.789-6.789
	s3.046-6.788,6.789-6.788s6.788,3.045,6.788,6.788S235.111,180.084,231.368,180.084z"/>
<path style="fill:#383838;" d="M344.985,208.166c-20.285,0-36.789,16.503-36.789,36.788s16.504,36.788,36.789,36.788
	s36.788-16.503,36.788-36.788S365.271,208.166,344.985,208.166z M344.985,251.742c-3.743,0-6.789-3.045-6.789-6.788
	s3.046-6.788,6.789-6.788s6.788,3.045,6.788,6.788S348.729,251.742,344.985,251.742z"/>
<path style="fill:#FF637B;" d="M331.243,142.192c-6.932-4.539-16.228-2.6-20.767,4.331L237.13,258.524
	c-4.538,6.931-2.6,16.228,4.331,20.767c2.535,1.66,5.385,2.453,8.204,2.453c4.889,0,9.684-2.389,12.563-6.784l73.346-112.001
	C340.112,156.028,338.174,146.731,331.243,142.192z"/>
<path style="fill:#383838;" d="M331.243,142.192c-6.932-4.539-16.228-2.6-20.767,4.331L237.13,258.524
	c-4.538,6.931-2.6,16.228,4.331,20.767c2.535,1.66,5.385,2.453,8.204,2.453c4.889,0,9.684-2.389,12.563-6.784l73.346-112.001
	C340.112,156.028,338.174,146.731,331.243,142.192z"/>
<path style="fill:#7C8388;" d="M286.353,183.362l-49.222,75.163c-4.538,6.931-2.6,16.228,4.331,20.767
	c2.535,1.66,5.385,2.453,8.204,2.453c4.889,0,9.684-2.389,12.563-6.784l24.124-36.838L286.353,183.362z"/>
<path style="fill:#FF637B;" d="M117.008,0C78.287,0,47,31.502,47,70.224v365.082V444h0.051c0,23.027,11.544,43.463,29.139,55.78
	l0.715,0.513l0.199-58.048C78.022,422.017,94.612,406,114.88,406H125v-30V0H117.008z"/>
<g>
</g>
<g>
</g>
<g>
</g>
<g>
</g>
<g>
</g>
<g>
</g>
<g>
</g>
<g>
</g>
<g>
</g>
<g>
</g>
<g>
</g>
<g>
</g>
<g>
</g>
<g>
</g>
<g>
</g>
</svg>
