<svg xmlns="http://www.w3.org/2000/svg" viewBox="0 0 103.19 24.48"><defs><style>.cls-1,.cls-2{fill:#b81850;}.cls-2{fill-rule:evenodd;}</style></defs><title>Asset 23</title><g id="Layer_2" data-name="Layer 2"><g id="Layer_1-2" data-name="Layer 1"><polygon class="cls-1" points="95.31 16.43 95.31 7.59 96.98 7.59 96.98 11.25 100.66 7.59 102.7 7.59 98.64 11.52 103.19 16.43 101.03 16.43 96.98 11.91 96.98 16.43 95.31 16.43 95.31 16.43"/><path class="cls-1" d="M84.93,16.43V7.24l6.51,5.4.54.49q.27.26.57.59V7.59H94.1v9.18l-6.65-5.5c-.18-.15-.35-.3-.51-.47a6.91,6.91,0,0,1-.47-.52v6.14Z"/><path class="cls-1" d="M82.34,16.43l-1.16-2.28H77.11l-1.19,2.28H74.17l5-9.19,5,9.19ZM77.73,13h2.86l-1-2c-.06-.13-.12-.28-.19-.45s-.13-.35-.2-.56c-.06.19-.11.37-.18.54s-.13.32-.19.46l-1.05,2Z"/><path class="cls-1" d="M67.65,16.43V7.59h2.58a9.42,9.42,0,0,1,1.64.1,2.57,2.57,0,0,1,.9.34,2.1,2.1,0,0,1,.74.79,2.25,2.25,0,0,1,.26,1.08,1.84,1.84,0,0,1-.38,1.18,2,2,0,0,1-1.1.66,2.21,2.21,0,0,1,1.41.7,2.14,2.14,0,0,1,.51,1.47,2.44,2.44,0,0,1-.22,1,2.25,2.25,0,0,1-.62.82,2.41,2.41,0,0,1-1,.52,10,10,0,0,1-2.09.15Zm1.63-1.2h.57a10.62,10.62,0,0,0,1.31-.06,1.86,1.86,0,0,0,.69-.21,1.24,1.24,0,0,0,.48-.47,1.3,1.3,0,0,0,.17-.65,1.32,1.32,0,0,0-.2-.74,1.34,1.34,0,0,0-.58-.49,2.21,2.21,0,0,0-.54-.15,5.58,5.58,0,0,0-.81,0H69.28v2.82Zm0-3.9h.64A3.65,3.65,0,0,0,71.6,11a1,1,0,0,0,.49-.95,1.12,1.12,0,0,0-.45-1,3.48,3.48,0,0,0-1.72-.29h-.64v2.54Z"/><path class="cls-1" d="M55.08,14.66l1.27-.53A1.59,1.59,0,0,0,57,15a2.24,2.24,0,0,0,1.24.31A1.7,1.7,0,0,0,59.39,15a1.18,1.18,0,0,0,.42-1q0-.78-1.44-1.39l-.31-.13a7,7,0,0,1-2.16-1.29,2,2,0,0,1-.54-1.41,2.16,2.16,0,0,1,.82-1.75,3.26,3.26,0,0,1,2.14-.67,4,4,0,0,1,1.82.38,2.06,2.06,0,0,1,1,1.08l-1.25.58a2,2,0,0,0-.65-.61,1.64,1.64,0,0,0-.81-.19,1.6,1.6,0,0,0-1,.3,1,1,0,0,0-.38.81q0,.8,1.67,1.48l.2.08a6.08,6.08,0,0,1,2,1.18,2,2,0,0,1,.54,1.44,2.47,2.47,0,0,1-.88,2,3.58,3.58,0,0,1-2.38.74,3.73,3.73,0,0,1-2.06-.52,2.42,2.42,0,0,1-1-1.49Z"/><polygon class="cls-1" points="52.15 16.43 52.15 7.59 53.75 7.59 53.75 16.43 52.15 16.43 52.15 16.43"/><path class="cls-1" d="M42.57,16.43l3.19-4.62L42.94,7.59h1.68L46,9.75c.08.11.22.35.42.7l.1.18.24-.4.3-.46,1.5-2.17h1.64l-2.87,4.19,3.1,4.65H48.69L47,13.92l0,0-.5-.85-.25.42L46,13.9l-1.72,2.52Z"/><path class="cls-1" d="M40.52,16.43l-1.12-2.28H35.51l-1.14,2.28H32.69l4.76-9.19,4.75,9.19ZM36.1,13h2.74l-1-2c-.06-.13-.12-.28-.18-.45s-.13-.35-.19-.56c-.05.19-.11.37-.17.54s-.12.32-.18.46l-1,2Z"/><polygon class="cls-2" points="0 24.48 14.33 0 18.74 7.4 9.19 24.36 0 24.48 0 24.48"/><polygon class="cls-2" points="14.45 15.16 23.28 15.04 28.65 24.36 19.58 24.36 14.45 15.16 14.45 15.16"/></g></g></svg>