<?xml version="1.0"?>
<svg xmlns="http://www.w3.org/2000/svg" width="512" height="512" viewBox="0 0 128 128"><g><path d="M84.944,32.121A7.124,7.124,0,0,1,77.827,25a1.749,1.749,0,0,0-1.75-1.75H51.923A1.75,1.75,0,0,0,50.173,25a7.125,7.125,0,0,1-7.117,7.117,1.75,1.75,0,0,0-1.75,1.75v70.258a1.75,1.75,0,0,0,1.75,1.75A7.125,7.125,0,0,1,50.173,113a1.75,1.75,0,0,0,1.75,1.75H76.077a1.749,1.749,0,0,0,1.75-1.75,7.124,7.124,0,0,1,7.117-7.117,1.749,1.749,0,0,0,1.75-1.75V33.871A1.749,1.749,0,0,0,84.944,32.121Zm-1.75,70.4a10.643,10.643,0,0,0-8.722,8.723H53.529a10.645,10.645,0,0,0-8.723-8.723V35.477a10.645,10.645,0,0,0,8.723-8.723H74.472a10.643,10.643,0,0,0,8.722,8.723Z"/><path d="M73.69,67.25V65.734a5.757,5.757,0,0,0-5.75-5.75H64a1.751,1.751,0,0,0-1.75,1.75V74.516H60.06a2.253,2.253,0,0,1-2.25-2.25V61.734a1.75,1.75,0,0,0-3.5,0V67.25H51.056a1.75,1.75,0,0,0,0,3.5H54.31v1.516a5.757,5.757,0,0,0,5.75,5.75H64a1.751,1.751,0,0,0,1.75-1.75V63.484h2.19a2.253,2.253,0,0,1,2.25,2.25V76.266a1.75,1.75,0,1,0,3.5,0V70.75h3.254a1.75,1.75,0,1,0,0-3.5Z"/><path d="M64,52.838A5.336,5.336,0,1,0,58.664,47.5,5.342,5.342,0,0,0,64,52.838Zm0-7.172A1.836,1.836,0,1,1,62.164,47.5,1.837,1.837,0,0,1,64,45.666Z"/><path d="M64,85.162A5.336,5.336,0,1,0,69.336,90.5,5.342,5.342,0,0,0,64,85.162Zm0,7.172A1.836,1.836,0,1,1,65.836,90.5,1.838,1.838,0,0,1,64,92.334Z"/><path d="M126.25,5.254H1.75A1.75,1.75,0,0,0,0,7V40.973a1.75,1.75,0,0,0,1.75,1.75H33.306V121a1.75,1.75,0,0,0,1.75,1.75H92.943a1.749,1.749,0,0,0,1.75-1.75V42.723H126.25a1.749,1.749,0,0,0,1.75-1.75V7A1.749,1.749,0,0,0,126.25,5.254ZM33.306,29.223H18.734a5.235,5.235,0,0,1,0-10.469H33.306Zm57.887,90.023H36.806V18.754H91.193V119.246ZM109.266,18.754a5.235,5.235,0,0,1,0,10.469H94.693V18.754ZM124.5,39.223H94.693v-6.5h14.573a8.735,8.735,0,0,0,0-17.469H18.734a8.735,8.735,0,0,0,0,17.469H33.306v6.5H3.5V8.754h121Z"/></g></svg>
