<?xml version="1.0" encoding="UTF-8" standalone="no"?>
<!-- Created with Inkscape (http://www.inkscape.org/) -->

<svg
   xmlns:dc="http://purl.org/dc/elements/1.1/"
   xmlns:cc="http://creativecommons.org/ns#"
   xmlns:rdf="http://www.w3.org/1999/02/22-rdf-syntax-ns#"
   xmlns:svg="http://www.w3.org/2000/svg"
   xmlns="http://www.w3.org/2000/svg"
   xmlns:sodipodi="http://sodipodi.sourceforge.net/DTD/sodipodi-0.dtd"
   xmlns:inkscape="http://www.inkscape.org/namespaces/inkscape"
   width="109.7"
   height="30.23"
   id="svg2"
   version="1.1"
   inkscape:version="0.47 r22583"
   sodipodi:docname="New document 1">
  <defs
     id="defs4">
    <inkscape:perspective
       sodipodi:type="inkscape:persp3d"
       inkscape:vp_x="0 : 526.18109 : 1"
       inkscape:vp_y="0 : 1000 : 0"
       inkscape:vp_z="744.09448 : 526.18109 : 1"
       inkscape:persp3d-origin="372.04724 : 350.78739 : 1"
       id="perspective10" />
    <clipPath
       id="clipPath2832"
       clipPathUnits="userSpaceOnUse">
      <path
         id="path2834"
         d="m 22.324,841.676 0,-819.352" />
    </clipPath>
    <inkscape:perspective
       id="perspective2824"
       inkscape:persp3d-origin="0.5 : 0.33333333 : 1"
       inkscape:vp_z="1 : 0.5 : 1"
       inkscape:vp_y="0 : 1000 : 0"
       inkscape:vp_x="0 : 0.5 : 1"
       sodipodi:type="inkscape:persp3d" />
  </defs>
  <sodipodi:namedview
     id="base"
     pagecolor="#ffffff"
     bordercolor="#666666"
     borderopacity="1.0"
     inkscape:pageopacity="0.0"
     inkscape:pageshadow="2"
     inkscape:zoom="12.961606"
     inkscape:cx="53.04841"
     inkscape:cy="14.202677"
     inkscape:document-units="px"
     inkscape:current-layer="layer1"
     showgrid="false"
     inkscape:window-width="1680"
     inkscape:window-height="1000"
     inkscape:window-x="-8"
     inkscape:window-y="-8"
     inkscape:window-maximized="1" />
  <metadata
     id="metadata7">
    <rdf:RDF>
      <cc:Work
         rdf:about="">
        <dc:format>image/svg+xml</dc:format>
        <dc:type
           rdf:resource="http://purl.org/dc/dcmitype/StillImage" />
        <dc:title></dc:title>
      </cc:Work>
    </rdf:RDF>
  </metadata>
  <g
     inkscape:label="Layer 1"
     inkscape:groupmode="layer"
     id="layer1"
     transform="translate(-289.48474,-338.63356)">
    <g
       id="g2828"
       transform="matrix(1.25,0,0,-1.25,-52.380625,1072.3616)">
      <g
         id="g2830"
         clip-path="url(#clipPath2832)">
        <g
           id="g2836"
           transform="translate(22.174,45)">
          <path
             d="M 0,0 -22.526,0"
             style="fill:none;stroke:#000000;stroke-width:0.498;stroke-linecap:butt;stroke-linejoin:miter;stroke-miterlimit:4;stroke-opacity:1;stroke-dasharray:none"
             id="path2838" />
          <g
             id="g2840"
             transform="translate(-0.225,774)">
            <path
               d="M 0,0 -22.301,0"
               style="fill:none;stroke:#000000;stroke-width:0.498;stroke-linecap:butt;stroke-linejoin:miter;stroke-miterlimit:4;stroke-opacity:1;stroke-dasharray:none"
               id="path2842" />
          </g>
        </g>
      </g>
    </g>
    <g
       id="g2882"
       transform="matrix(1.25,0,0,-1.25,361.72609,342.91929)">
      <path
         d="m 0,0 c -0.303,-1.16 -0.835,-1.224 -1.499,-1.224 l -1.294,0 c -1.082,0 -1.17,0.464 -0.951,1.224 l 1.28,0 c -0.124,-0.395 -0.281,-0.756 0.399,-0.756 0.449,0 0.599,0.108 0.772,0.734 L 0,0 z m 11.142,-6.041 -0.972,1.256 -0.084,-0.318 c -0.249,-0.963 -0.237,-1.358 0.353,-1.358 0.328,0 0.538,0.128 0.703,0.42 z m -0.739,1.854 0.971,-1.264 0.096,0.344 c 0.196,0.767 0.35,1.299 -0.348,1.305 -0.354,0.005 -0.567,-0.139 -0.719,-0.385 z m 6.393,0.63 0.26,1.106 -3.634,0 -1.374,-5.345 -1.229,0 0.324,1.166 c -0.351,-0.373 -0.968,-0.49 -1.462,-0.49 -1.339,0 -1.121,1.288 -0.917,2.078 0.199,0.773 0.611,1.903 1.912,1.903 0.467,0 0.982,-0.126 1.165,-0.451 l 0.291,1.139 -2.977,0 0.184,0.587 8.736,0 -1.073,1.328 0.894,0.656 1.145,-1.984 0.348,0 -0.918,2.413 1.082,0.48 0.632,-2.893 8.249,0 -0.184,-0.587 -0.689,0 -1.375,-5.351 -1.228,0 1.373,5.351 -1.064,0 -0.427,-1.359 -1.717,0 c -0.559,0 -0.712,-0.669 -0.941,-1.655 -0.275,-1.187 -0.488,-1.902 0.283,-1.902 0.054,0 0.14,0.021 0.247,0.058 -0.081,0.731 0.338,1.582 1.202,1.582 0.791,0 0.792,-0.432 0.684,-0.814 -0.15,-0.538 -0.426,-0.827 -0.958,-0.976 0.274,-0.515 0.934,-0.556 0.934,-0.556 l -1.32,-0.726 c -0.305,0.36 -0.486,0.675 -0.539,1.043 -0.325,-0.086 -0.685,-0.111 -0.957,-0.111 -1.584,0 -1.32,1.551 -1.053,2.598 0.273,1.079 0.744,2.025 2.046,2.025 0.467,0 0.994,-0.03 0.994,-0.03 l 0.232,0.823 -3.459,0 -1.375,-5.351 -1.228,0 1.374,5.351 -0.984,0 -0.49,-1.885 -1.232,0 c 0.105,0.412 -0.087,0.566 -0.611,0.566 -0.474,0 -0.614,-0.067 -0.81,-0.743 -0.14,-0.578 0.026,-0.701 0.598,-0.687 l 0.981,0 c 0.72,0 0.851,-0.269 0.594,-1.341 -0.316,-1.206 -0.903,-1.276 -1.64,-1.276 l -1.436,0 c -1.255,0 -1.301,0.56 -1.018,1.474 l 1.417,0 c -0.13,-0.482 -0.414,-0.957 0.408,-0.957 0.498,0 0.665,0.121 0.853,0.814 0.156,0.499 0.195,0.759 -0.561,0.759 0,0 -0.672,0.009 -0.992,0.009 -0.842,0 -0.708,0.713 -0.556,1.303 0.3,1.088 0.512,1.23 1.766,1.23 0.771,0 1.112,-0.086 1.22,-0.372 z m -33.932,-2.914 c 0.437,0 0.623,0.403 0.872,1.364 0.196,0.767 0.342,1.297 -0.19,1.297 -0.559,0 -0.686,-0.53 -0.882,-1.297 -0.248,-0.961 -0.27,-1.364 0.2,-1.364 z m 0.228,-1.324 c 0.323,1.167 0.316,1.165 0.316,1.165 l -0.316,-1.165 z m -4.262,1.802 -0.981,1.271 c -0.034,-0.119 -0.068,-0.245 -0.102,-0.381 -0.249,-0.963 -0.237,-1.358 0.352,-1.358 0.346,0 0.56,0.143 0.731,0.468 z m -0.735,1.852 0.96,-1.246 0.076,0.28 c 0.196,0.767 0.35,1.299 -0.348,1.305 -0.332,0.005 -0.539,-0.123 -0.688,-0.339 z m 0.945,2.277 -1.073,1.328 0.897,0.656 1.144,-1.984 0.345,0 -0.914,2.413 1.081,0.48 0.632,-2.893 7.157,0 -0.183,-0.587 -2.486,0 -0.307,-1.241 c 0.333,0.373 0.745,0.515 1.24,0.515 1.337,0 1.045,-1.265 0.841,-2.053 -0.196,-0.774 -0.535,-1.891 -1.835,-1.891 -0.257,0 -0.489,0.05 -0.621,0.17 l 0.092,0.346 c 0.034,-0.004 0.083,-0.032 0.121,-0.032 0.559,0 0.712,0.67 0.909,1.436 0.248,0.962 0.268,1.364 -0.2,1.364 -0.39,0 -0.619,-0.29 -0.839,-1.028 l -0.729,-2.931 -1.22,0.001 0.316,1.165 c -0.352,-0.373 -0.744,-0.5 -1.237,-0.5 -1.339,0 -1.034,1.334 -0.831,2.123 0.198,0.773 0.523,1.855 1.824,1.855 0.468,0 0.76,-0.113 0.943,-0.438 l 0.287,1.139 -3.31,0 -1.374,-5.345 -1.23,0 0.324,1.166 c -0.353,-0.373 -0.967,-0.49 -1.464,-0.49 -1.336,0 -1.072,1.366 -0.869,2.154 0.2,0.772 0.564,1.827 1.864,1.827 0.469,0 0.987,-0.126 1.169,-0.451 l 0.288,1.139 -2.995,0 0.183,0.587 2.06,0 z m 12.547,-5.927 -1.835,0 0.156,0.605 1.598,0 c 0.405,0 1.003,0.228 1.21,1.03 0.127,0.508 -0.091,1.095 -0.82,1.095 l -1.201,0 0.159,0.663 1.392,0 c 0.493,0 0.871,0.421 1.017,0.975 0.108,0.421 0.083,0.985 -0.65,0.985 l -1.493,0 0.155,0.605 1.796,0 c 0.911,0 1.9,-0.392 1.635,-1.484 -0.196,-0.814 -0.615,-1.222 -1.574,-1.375 0.993,-0.136 1.189,-0.796 0.989,-1.584 -0.375,-1.45 -1.918,-1.515 -2.534,-1.515 z m 11.067,5.34 -0.972,0 -0.758,-2.919 c -0.087,-0.34 -0.078,-0.591 0.334,-0.591 0.413,0 0.57,0.389 0.657,0.731 l 0.739,2.779 z m -7.293,0.587 10.996,0 -0.184,-0.587 -2.224,0 -0.368,-1.409 c 0.343,0.335 0.758,0.486 1.241,0.486 0.615,0 1.077,-0.304 0.942,-0.833 l -0.79,-3.072 -1.294,0 0.679,2.638 c 0.088,0.343 0.083,0.608 -0.33,0.608 -0.298,0 -0.502,-0.25 -0.627,-0.517 L 3.081,-5.785 C 3.018,-6.036 2.657,-7.545 2.622,-7.796 l -1.338,0 0.409,1.639 C 1.331,-6.499 0.952,-6.621 0.465,-6.621 c -0.615,0 -1.077,0.306 -0.939,0.836 l 0.864,3.334 -1.023,0 -1.376,-5.351 -1.229,0 1.375,5.351 -0.973,0 -1.372,-5.351 -1.229,0 0.723,2.811 -0.998,0 0.169,0.599 0.983,0 0.5,1.941 -0.765,0 0.186,0.587 z m -13.716,1.458 1.17,0 -0.261,-0.975 -1.17,0 0.261,0.975 z m 17.753,-6.996 1.168,0 -0.262,-0.972 -1.17,0 0.264,0.972 z m 14.841,-0.959 1.169,0 -0.264,-0.974 -1.168,0 0.263,0.974"
         style="fill:#f15a29;fill-opacity:1;fill-rule:nonzero;stroke:none"
         id="path2884" />
    </g>
    <g
       id="g2886"
       transform="matrix(1.25,0,0,-1.25,333.00234,362.58429)">
      <path
         d="M 0,0 0.834,0 C 1.555,0 1.703,-0.369 1.575,-0.977 1.372,-1.933 0.687,-1.945 0.382,-1.945 l -0.794,0 L 0,0 z m 0.596,2.798 0.882,0 C 1.96,2.798 2.223,2.426 2.116,1.925 1.974,1.261 1.494,1.053 1.181,1.053 l -0.957,0 0.372,1.745 z M 0.463,-2.995 c 0.607,0 2.132,0.075 2.499,1.81 0.201,0.936 0.074,1.594 -0.91,1.735 l 0.003,0.02 c 0.81,0.151 1.32,0.72 1.488,1.507 0.311,1.459 -0.524,1.774 -1.617,1.774 l -2.539,0 -1.454,-6.846 2.53,0"
         style="fill:#f15a29;fill-opacity:1;fill-rule:nonzero;stroke:none"
         id="path2888" />
    </g>
    <g
       id="g2890"
       transform="matrix(1.25,0,0,-1.25,340.56859,363.43804)">
      <path
         d="m 0,0 c -0.111,-0.521 -0.211,-1.584 -1,-1.584 -0.436,0 -0.406,0.419 -0.333,0.758 C -1.152,0.031 -0.67,-0.028 0,0 z M 1.514,0.967 C 1.699,1.841 1.635,2.57 -0.06,2.57 -0.573,2.57 -1.027,2.485 -1.379,2.257 -1.737,2.039 -1.998,1.668 -2.119,1.092 l 1.308,0 c 0.082,0.376 0.194,0.729 0.657,0.729 0.485,0 0.478,-0.295 0.391,-0.704 L 0.16,0.75 c -1.237,0.018 -2.476,-0.047 -2.811,-1.631 -0.179,-0.834 0.015,-1.527 0.944,-1.527 0.578,0 1.018,0.237 1.408,0.729 l 0.019,0 -0.079,-0.633 1.243,0 c 0.033,0.293 0.059,0.597 0.122,0.89 l 0.508,2.389"
         style="fill:#f15a29;fill-opacity:1;fill-rule:nonzero;stroke:none"
         id="path2892" />
    </g>
    <g
       id="g2894"
       transform="matrix(1.25,0,0,-1.25,345.41985,360.34554)">
      <path
         d="m 0,0 -1.337,0 -1.016,-4.786 1.336,0 0.702,3.299 c 0.09,0.426 0.236,0.759 0.662,0.759 0.428,0 0.432,-0.333 0.342,-0.759 l -0.702,-3.299 1.337,0 0.817,3.838 c 0.141,0.663 -0.338,1.044 -0.973,1.044 -0.504,0 -0.895,-0.151 -1.252,-0.579 l -0.018,0 L 0,0"
         style="fill:#f15a29;fill-opacity:1;fill-rule:nonzero;stroke:none"
         id="path2896" />
    </g>
    <g
       id="g2898"
       transform="matrix(1.25,0,0,-1.25,349.53859,366.32929)">
      <path
         d="m 0,0 0.554,2.607 0.019,0 L 1.262,0 2.771,0 1.825,2.654 l 1.809,2.132 -1.393,0 -1.633,-2.017 -0.018,0 0.867,4.077 -1.339,0 L -1.336,0 0,0"
         style="fill:#f15a29;fill-opacity:1;fill-rule:nonzero;stroke:none"
         id="path2900" />
    </g>
    <g
       id="g2902"
       transform="matrix(1.25,0,0,-1.25,357.44234,365.38179)">
      <path
         d="M 0,0 C -0.493,0 -0.549,0.313 -0.239,1.774 -0.028,2.77 0.127,3.272 0.696,3.272 1.265,3.272 1.206,2.77 0.994,1.774 0.683,0.313 0.493,0 0,0 z m -0.179,-0.853 c 1.724,0 2.175,1.052 2.495,2.551 0.276,1.309 0.324,2.427 -1.438,2.427 -1.765,0 -2.192,-1.118 -2.47,-2.427 -0.318,-1.499 -0.314,-2.551 1.413,-2.551"
         style="fill:#f15a29;fill-opacity:1;fill-rule:nonzero;stroke:none"
         id="path2904" />
    </g>
    <g
       id="g2906"
       transform="matrix(1.25,0,0,-1.25,364.76859,357.73679)">
      <path
         d="m 0,0 c -0.159,0.01 -0.311,0.018 -0.471,0.018 -1.632,0 -1.672,-0.729 -1.955,-2.105 l -0.607,0 -0.175,-0.823 0.597,0 -0.842,-3.963 1.337,0 0.841,3.963 0.627,0 0.175,0.823 -0.626,0 0.123,0.579 c 0.104,0.485 0.26,0.694 0.793,0.655 L 0,0"
         style="fill:#f15a29;fill-opacity:1;fill-rule:nonzero;stroke:none"
         id="path2908" />
    </g>
    <g
       id="g2910"
       transform="matrix(1.25,0,0,-1.25,367.98359,362.58429)">
      <path
         d="M 0,0 0.834,0 C 1.554,0 1.703,-0.369 1.575,-0.977 1.37,-1.933 0.685,-1.945 0.382,-1.945 l -0.796,0 L 0,0 z m 0.594,2.798 0.881,0 c 0.484,0 0.747,-0.372 0.64,-0.873 C 1.975,1.261 1.493,1.053 1.181,1.053 l -0.958,0 0.371,1.745 z M 0.462,-2.995 c 0.606,0 2.131,0.075 2.5,1.81 0.199,0.936 0.073,1.594 -0.911,1.735 L 2.054,0.57 C 2.863,0.721 3.373,1.29 3.542,2.077 3.851,3.536 3.018,3.851 1.926,3.851 l -2.541,0 -1.454,-6.846 2.531,0"
         style="fill:#f15a29;fill-opacity:1;fill-rule:nonzero;stroke:none"
         id="path2912" />
    </g>
    <g
       id="g2914"
       transform="matrix(1.25,0,0,-1.25,375.54859,363.43804)">
      <path
         d="m 0,0 c -0.113,-0.521 -0.213,-1.584 -1,-1.584 -0.436,0 -0.404,0.419 -0.33,0.758 C -1.15,0.031 -0.669,-0.028 0,0 z M 1.515,0.967 C 1.7,1.841 1.637,2.57 -0.061,2.57 -0.572,2.57 -1.026,2.485 -1.378,2.257 -1.738,2.039 -1.997,1.668 -2.12,1.092 l 1.309,0 c 0.081,0.376 0.194,0.729 0.657,0.729 0.484,0 0.478,-0.295 0.392,-0.704 L 0.159,0.75 c -1.238,0.018 -2.475,-0.047 -2.811,-1.631 -0.176,-0.834 0.017,-1.527 0.945,-1.527 0.579,0 1.019,0.237 1.408,0.729 l 0.019,0 -0.078,-0.633 1.24,0 c 0.036,0.293 0.063,0.597 0.125,0.89 l 0.508,2.389"
         style="fill:#f15a29;fill-opacity:1;fill-rule:nonzero;stroke:none"
         id="path2916" />
    </g>
    <g
       id="g2918"
       transform="matrix(1.25,0,0,-1.25,378.72859,360.34554)">
      <path
         d="m 0,0 -1.016,-4.786 1.337,0 0.554,2.606 c 0.1,0.474 0.264,1.158 1.424,1.081 l 0.253,1.195 c -0.54,0 -1.029,-0.161 -1.393,-0.711 l -0.019,0 L 1.271,0 0,0"
         style="fill:#f15a29;fill-opacity:1;fill-rule:nonzero;stroke:none"
         id="path2920" />
    </g>
    <g
       id="g2922"
       transform="matrix(1.25,0,0,-1.25,383.39985,365.38179)">
      <path
         d="M 0,0 C -0.492,0 -0.55,0.313 -0.238,1.774 -0.027,2.77 0.128,3.272 0.697,3.272 1.266,3.272 1.206,2.77 0.994,1.774 0.683,0.313 0.495,0 0,0 z m -0.179,-0.853 c 1.724,0 2.174,1.052 2.493,2.551 0.28,1.309 0.327,2.427 -1.437,2.427 -1.763,0 -2.191,-1.118 -2.469,-2.427 -0.318,-1.499 -0.313,-2.551 1.413,-2.551"
         style="fill:#f15a29;fill-opacity:1;fill-rule:nonzero;stroke:none"
         id="path2924" />
    </g>
    <g
       id="g2926"
       transform="matrix(1.25,0,0,-1.25,388.74734,365.41804)">
      <path
         d="M 0,0 C -0.482,0 -0.459,0.502 -0.205,1.708 -0.002,2.665 0.13,3.33 0.71,3.33 1.258,3.33 1.108,2.665 0.906,1.708 0.651,0.502 0.456,0 0,0 z m 1.724,-0.728 1.455,6.845 -1.338,0 -0.535,-2.513 -0.016,0 c -0.19,0.409 -0.492,0.55 -0.975,0.55 -1.347,0 -1.624,-1.489 -1.83,-2.454 -0.209,-0.989 -0.584,-2.524 0.801,-2.524 0.512,0 0.917,0.161 1.262,0.626 l 0.017,0 -0.11,-0.53 1.269,0"
         style="fill:#f15a29;fill-opacity:1;fill-rule:nonzero;stroke:none"
         id="path2928" />
    </g>
    <g
       id="g2930"
       transform="matrix(1.25,0,0,-1.25,395.2711,363.43804)">
      <path
         d="m 0,0 c -0.11,-0.521 -0.213,-1.584 -1,-1.584 -0.435,0 -0.405,0.419 -0.332,0.758 C -1.15,0.031 -0.67,-0.028 0,0 z M 1.516,0.967 C 1.701,1.841 1.638,2.57 -0.06,2.57 -0.572,2.57 -1.025,2.485 -1.378,2.257 -1.737,2.039 -1.997,1.668 -2.118,1.092 l 1.308,0 c 0.08,0.376 0.192,0.729 0.658,0.729 0.483,0 0.478,-0.295 0.392,-0.704 L 0.159,0.75 c -1.235,0.018 -2.475,-0.047 -2.812,-1.631 -0.177,-0.834 0.018,-1.527 0.947,-1.527 0.578,0 1.018,0.237 1.405,0.729 l 0.019,0 -0.077,-0.633 1.244,0 c 0.032,0.293 0.058,0.597 0.124,0.89 l 0.507,2.389"
         style="fill:#f15a29;fill-opacity:1;fill-rule:nonzero;stroke:none"
         id="path2932" />
    </g>
    <g
       id="g2934"
       transform="matrix(1.25,0,0,-1.25,308.49484,367.31054)">
      <path
         d="m 0,0 -10.481,-0.008 -0.004,0.281 7.717,0.307 c 1.465,0.056 2.887,0.132 4.263,0.6 2.822,0.944 5.071,2.865 5.732,5.245 0.711,2.55 -0.921,5.03 -3.995,5.244 2.604,0.764 4.825,2.413 5.415,4.539 0.769,2.758 -0.621,4.151 -2.965,4.662 3.899,0.062 6.95,-1.248 5.912,-4.981 C 11.004,13.765 8.73,12.148 6.144,11.443 9.182,11.216 10.847,8.322 10.041,5.801 9.204,3.174 7.085,1.543 4.263,0.602 2.886,0.133 1.466,0.056 0,0"
         style="fill:#f15a29;fill-opacity:1;fill-rule:nonzero;stroke:none"
         id="path2936" />
    </g>
    <g
       id="g2938"
       transform="matrix(1.25,0,0,-1.25,301.61985,365.65929)">
      <path
         d="m 0,0 -4.951,-0.235 c -0.002,0.127 -0.007,0.165 -0.021,0.287 L 7.529,3.659 7.537,3.86 -5.136,0.811 C -5.175,0.93 -5.186,0.963 -5.239,1.076 L 8.071,8.467 7.986,8.672 -5.626,1.712 C -5.71,1.829 -5.697,1.834 -5.791,1.937 L 10.031,16.855 9.893,17.023 -6.392,2.444 C -6.467,2.499 -6.508,2.543 -6.59,2.592 L 4.966,19.449 4.761,19.506 -7.283,2.902 C -7.35,2.924 -7.417,2.946 -7.484,2.965 l 6.612,16.305 -0.175,0.019 -7.456,-16.18 c -0.092,0 -0.184,-0.002 -0.278,-0.008 L -8.844,3.096 -4.04,20.451 4.934,20.423 C 9.179,20.666 12.532,19.519 11.43,15.555 10.838,13.431 8.619,11.78 6.029,11.074 L 6.014,11.018 C 9.088,10.804 10.818,8.33 10.11,5.779 9.448,3.401 7.084,1.544 4.262,0.601 2.884,0.132 1.462,0.054 0,0"
         style="fill:#f15a29;fill-opacity:1;fill-rule:nonzero;stroke:none"
         id="path2940" />
    </g>
  </g>
</svg>
