<svg xmlns="http://www.w3.org/2000/svg" viewBox="0 0 91.28 23.67"><defs><style>.cls-1{fill:#32347f;}.cls-1,.cls-2{fill-rule:evenodd;}.cls-2{fill:#eb2d2e;}</style></defs><title>Asset 25</title><g id="Layer_2" data-name="Layer 2"><g id="Layer_1-2" data-name="Layer 1"><path class="cls-1" d="M49.28,10.34a4.7,4.7,0,0,0-3.86-1.83,5.46,5.46,0,0,0-3.66,1.71v-7l-2.7,1.47V23.35h2.7V22a4.54,4.54,0,0,0,3.54,1.71,5,5,0,0,0,3.86-1.79,8.54,8.54,0,0,0,1.71-5.57,9.7,9.7,0,0,0-1.59-6ZM41.72,13a4,4,0,0,1,3.18-1.87c2.15,0,3.18,1.75,3.18,5.29,0,3-1,4.57-3.06,4.57a4.17,4.17,0,0,1-3.3-1.91V13Z"/><path class="cls-1" d="M54.21,12a6.86,6.86,0,0,1,3.66-.91c1.75,0,2.67.84,2.67,2.47V14.6a7.61,7.61,0,0,0-3.1-.56,6.43,6.43,0,0,0-4,1.15,4.18,4.18,0,0,0-1.59,3.54,4.68,4.68,0,0,0,1.59,3.82,4.78,4.78,0,0,0,3.26,1.11,5.21,5.21,0,0,0,3.86-1.75v1.43h2.7v-10A4.57,4.57,0,0,0,61.77,9.7,5.63,5.63,0,0,0,58,8.51a8.63,8.63,0,0,0-4.81,1.31L54.21,12Zm6.32,5.17v2.07a4.06,4.06,0,0,1-3.42,1.87c-1.79,0-2.66-.79-2.66-2.43,0-1.43,1-2.15,2.9-2.15a7.69,7.69,0,0,1,3.18.64Z"/><path class="cls-1" d="M68.89,8.79H66.14V23.35h2.74V14.84q0-3.7,2.86-3.7c1.95,0,2.9,1.31,2.9,4v8.23h2.78V15c0-4.34-1.71-6.48-5.05-6.48a3.9,3.9,0,0,0-3.5,1.71V8.79Z"/><polygon class="cls-1" points="87.5 8.79 84.6 13.05 83.01 15.43 83.05 3.18 80.3 4.69 80.3 23.35 83.05 23.35 83.05 19.05 85.2 16.11 88.3 23.35 91.28 23.35 87.06 13.68 90.61 8.79 87.5 8.79 87.5 8.79"/><polygon class="cls-1" points="17.62 8.75 14.6 8.75 14.6 23.35 17.62 23.35 17.62 8.75 17.62 8.75"/><path class="cls-1" d="M20.32,8.75v2.74h2.55v8.23a4.26,4.26,0,0,0,.91,2.78,3.27,3.27,0,0,0,2.39,1.07,4.58,4.58,0,0,0,2.67-.68h0l0,0,.64-2.59,0-.2-.16.08a4.14,4.14,0,0,1-2.23.76c-.91,0-1.39-.52-1.39-1.63v-7.8h3.06V8.75H25.81V4.18l-2.9,1.59h0v3Z"/><polygon class="cls-1" points="34.84 8.75 31.78 8.75 31.78 23.35 34.84 23.35 34.84 8.75 34.84 8.75"/><path class="cls-1" d="M7.68,8.47a7.66,7.66,0,0,0-5.37,2A7.15,7.15,0,0,0,0,16.07a7.2,7.2,0,0,0,2.31,5.61,7.66,7.66,0,0,0,5.37,2,6.51,6.51,0,0,0,5.17-2.51l0,0,0,0-1.59-1.95-.08-.08,0,.08A4.76,4.76,0,0,1,7.56,20.8,4.29,4.29,0,0,1,4.3,19.45,4.68,4.68,0,0,1,3,16.07,4.69,4.69,0,0,1,4.3,12.69a4.29,4.29,0,0,1,3.26-1.35A4.76,4.76,0,0,1,11.14,13l0,.08.08-.08,1.59-1.95,0,0,0,0A6.51,6.51,0,0,0,7.68,8.47Z"/><path class="cls-2" d="M16.11,6.32a11.38,11.38,0,0,1,8.55-3.7,11.24,11.24,0,0,1,8.51,3.7l.08,0h3.42l-.12-.2A14.5,14.5,0,0,0,31.3,1.63,14.34,14.34,0,0,0,18,1.63a14.84,14.84,0,0,0-5.25,4.53l-.12.2h3.42l0,0Z"/></g></g></svg>