<?xml version="1.0"?>
<svg xmlns="http://www.w3.org/2000/svg" viewBox="0 0 64 64" width="512" height="512"><g id="Credit_card-2" data-name="Credit card"><path d="M21,37H57a5.006,5.006,0,0,0,5-5V14a5.006,5.006,0,0,0-5-5H21a5.006,5.006,0,0,0-5,5V32A5.006,5.006,0,0,0,21,37Zm36-2H21a3,3,0,0,1-3-3V21H60V32A3,3,0,0,1,57,35ZM18,17H60v2H18Zm3-6H57a3,3,0,0,1,3,3v1H18V14A3,3,0,0,1,21,11Z"/><path d="M54,25a3.988,3.988,0,0,0-2.51.894,4,4,0,1,0,0,6.212A4,4,0,1,0,54,25Zm-5,6a2,2,0,1,1,2-2A2,2,0,0,1,49,31Zm5,0a1.968,1.968,0,0,1-1.3-.486,3.946,3.946,0,0,0,0-3.028A1.968,1.968,0,0,1,54,27a2,2,0,0,1,0,4Z"/><path d="M36,31H23a1,1,0,0,0,0,2H36a1,1,0,0,0,0-2Z"/><path d="M23,30h1a1,1,0,0,0,0-2H23a1,1,0,0,0,0,2Z"/><path d="M27,30h1a1,1,0,0,0,0-2H27a1,1,0,0,0,0,2Z"/><path d="M31,30h1a1,1,0,0,0,0-2H31a1,1,0,0,0,0,2Z"/><path d="M36,28H35a1,1,0,0,0,0,2h1a1,1,0,0,0,0-2Z"/><path d="M61.885,40.9a4.016,4.016,0,0,0-5.465-1.464L45,46.032a4.041,4.041,0,0,0-2.558-2.054L28.881,40.865a12.953,12.953,0,0,0-7.736.6l-5.8,2.321A2.987,2.987,0,0,1,14.229,44H14V42a1,1,0,0,0-1-1H3a1,1,0,0,0-1,1V61a1,1,0,0,0,1,1H13a1,1,0,0,0,1-1V60h.6q.349,0,.7.035l16.893,1.689q.441.044.884.044a9.065,9.065,0,0,0,4.766-1.357L60.424,46.364A4.007,4.007,0,0,0,61.885,40.9ZM12,60H4V43h8ZM59.392,44.651,36.785,58.713a7.06,7.06,0,0,1-4.394,1.021L15.5,58.044Q15.05,58,14.6,58H14V46h.229a5,5,0,0,0,1.857-.357l5.8-2.321a10.954,10.954,0,0,1,6.547-.508l13.523,3.1a2.007,2.007,0,0,1,1.465,1.661.938.938,0,0,0,.012.1,2,2,0,0,1-.062.684,2.024,2.024,0,0,1-2.518,1.4l-9.664-1.88a1,1,0,0,0-.382,1.963l9.6,1.864a4,4,0,0,0,4.9-2.828,4.026,4.026,0,0,0,.13-.8l11.983-6.922a2,2,0,0,1,3,1.723A2.043,2.043,0,0,1,59.392,44.651Z"/><path d="M8,45a1,1,0,0,0-1,1v1a1,1,0,0,0,2,0V46A1,1,0,0,0,8,45Z"/></g></svg>
