<svg xmlns="http://www.w3.org/2000/svg" viewBox="0 0 112.13 18.69"><defs><style>.cls-1{fill:#144385;}.cls-2{fill:#fff;}.cls-3{fill:#e3151e;}</style></defs><title>Asset 20</title><g id="Layer_2" data-name="Layer 2"><g id="Layer_1-2" data-name="Layer 1"><g id="layer1"><g id="g11008"><path id="path1556" class="cls-1" d="M0,0H112.13V18.69H0V0Z"/><path id="path1558" class="cls-1" d="M18.69,0h93.44V18.69H18.69Z"/><path id="path1560" class="cls-2" d="M24.63,13.76V4.92h2.91v3h2.73v-3h2.91v8.84H30.27V10.33H27.54v3.43H24.63"/><path id="path1562" class="cls-2" d="M37.78,7.12h.75a3.12,3.12,0,0,1,1.19.17,1.13,1.13,0,0,1,.47.39,2.19,2.19,0,0,1,.29.7,4,4,0,0,1,.1.9,3.25,3.25,0,0,1-.22,1.3,1.5,1.5,0,0,1-.64.76,2.53,2.53,0,0,1-1.22.23h-.73Zm1.12,6.64h0a6.76,6.76,0,0,0,1.72-.18,3.82,3.82,0,0,0,1.14-.47,3.32,3.32,0,0,0,.81-.78A4.55,4.55,0,0,0,43.2,11a5.6,5.6,0,0,0,.25-1.77,5.08,5.08,0,0,0-.56-2.48,3.27,3.27,0,0,0-1.56-1.45A5.87,5.87,0,0,0,39,4.92h-4v8.84h4"/><path id="path1564" class="cls-2" d="M44.79,13.76V4.92h6.9V7.1h-4V8.52h3.22v2.12H47.66v3.12H44.79"/><path id="path1566" class="cls-2" d="M61.43,8.3H58.68a1.63,1.63,0,0,0-.48-1,1.45,1.45,0,0,0-1-.36,1.55,1.55,0,0,0-1.25.59,3.07,3.07,0,0,0-.49,1.93,3.74,3.74,0,0,0,.21,1.4,1.54,1.54,0,0,0,.58.72,1.68,1.68,0,0,0,.93.23,1.44,1.44,0,0,0,1.06-.37,1.64,1.64,0,0,0,.47-1.09h2.8a5,5,0,0,1-.33,1.39,3.58,3.58,0,0,1-.79,1.12A3.81,3.81,0,0,1,59,13.7a4.82,4.82,0,0,1-1.79.3,5.65,5.65,0,0,1-1.87-.29,4.09,4.09,0,0,1-1.44-.85A4.13,4.13,0,0,1,53,11.6a5.08,5.08,0,0,1-.46-2.21,5.41,5.41,0,0,1,.33-1.92A4.31,4.31,0,0,1,53.81,6a4,4,0,0,1,1.3-.9,5.07,5.07,0,0,1,2-.38,5.58,5.58,0,0,1,1.8.28,3.42,3.42,0,0,1,1.38.84,3.86,3.86,0,0,1,.84,1.27,4.23,4.23,0,0,1,.28,1.22"/><path id="path1568" class="cls-2" d="M70.74,6.91a3.6,3.6,0,0,1,.81.06.81.81,0,0,1,.41.27.72.72,0,0,1,.16.46.69.69,0,0,1-.26.55,1.53,1.53,0,0,1-.94.22h-1.1V6.91Zm.73,6.85h0a7.84,7.84,0,0,0,1.46-.09,4.53,4.53,0,0,0,.86-.31,2.48,2.48,0,0,0,.65-.45,2.06,2.06,0,0,0,.51-.77,2.79,2.79,0,0,0,.18-1,2.14,2.14,0,0,0-.4-1.33,2,2,0,0,0-1.08-.73,2.15,2.15,0,0,0,1.15-1.87,2,2,0,0,0-1-1.8,4.78,4.78,0,0,0-2.42-.47H67v8.84ZM71,10.06h0a2,2,0,0,1,1.14.22.74.74,0,0,1,.27.61.75.75,0,0,1-.28.63,1.85,1.85,0,0,1-1.12.22H69.82V10.06H71"/><path id="path1570" class="cls-2" d="M81.53,10.79H79.68l.91-3.22Zm-2.72,3h0l.34-1.16H82l.34,1.16h2.89L82.1,4.92h-3L76,13.76h2.84"/><path id="path1572" class="cls-2" d="M86.5,13.76V4.92h2.71l3.06,4.73V4.92h2.79v8.84H92.28l-3-4.62v4.62H86.5"/><path id="path1574" class="cls-2" d="M97,13.76V4.92h2.82V7.84l2.63-2.92h3.42l-3.24,3.33,3.58,5.51h-3.48l-2.13-3.52-.77.76v2.76H97"/><path id="path1576" class="cls-3" d="M0,0H18.69V18.69H0Z"/><path id="path1578" class="cls-2" d="M3.27,3.27H15.42V15.42H3.27Z"/><path id="path1580" class="cls-2" d="M8.41,0h1.87V18.69H8.41Z"/><path id="path1582" class="cls-2" d="M0,8.41H18.69v1.87H0Z"/><path id="path1584" class="cls-1" d="M6.54,6.54h5.61v5.61H6.54Z"/></g></g></g></g></svg>