<svg xmlns="http://www.w3.org/2000/svg" viewBox="0 0 49.47 16.58"><defs><style>.cls-1{fill:#005370;}.cls-1,.cls-2,.cls-3,.cls-4{fill-rule:evenodd;}.cls-2{fill:#f49c0e;}.cls-3{fill:#ac2221;}.cls-4{fill:#fff;}</style></defs><title>Asset 32</title><g id="Layer_2" data-name="Layer 2"><g id="Layer_1-2" data-name="Layer 1"><polyline class="cls-1" points="15.28 16.5 18.12 16.5 20.34 8.2 17.5 8.2 15.28 16.5"/><polyline class="cls-1" points="29.84 16.5 32.68 16.5 34.9 8.2 32.07 8.2 29.84 16.5"/><polyline class="cls-1" points="44.41 16.5 47.24 16.5 49.47 8.2 46.63 8.2 44.41 16.5"/><path class="cls-1" d="M27.21,11H30c.38-1.87-.83-2.83-3.61-2.83-3.22,0-5.4,1.58-6.14,4.31-.66,2.48.65,4,3.68,4s4.87-1,5.64-3.08H26.77a2.19,2.19,0,0,1-2.15,1.43c-1.37,0-1.91-.87-1.49-2.45A3,3,0,0,1,26,9.87c.87,0,1.28.39,1.22,1.17"/><path class="cls-1" d="M41.77,11h2.84C45,9.18,43.78,8.22,41,8.22c-3.22,0-5.4,1.58-6.14,4.31-.66,2.48.65,4,3.68,4s4.87-1,5.64-3.08H41.33a2.19,2.19,0,0,1-2.15,1.43c-1.37,0-1.91-.87-1.49-2.45a3,3,0,0,1,2.86-2.55c.87,0,1.28.39,1.22,1.17"/><path class="cls-2" d="M4.33,3.6c3.8-3.76,8.39-4.74,10.22-2.16s.23,7.74-3.57,11.5S2.59,17.68.76,15.11.53,7.37,4.33,3.6"/><path class="cls-3" d="M6.84,1.6A11.71,11.71,0,0,0,5.59,2.67c-3.33,3.28-4.71,7.78-3.07,10s5.79,1.43,9.17-1.9a13,13,0,0,0,3.56-5.76,5.34,5.34,0,0,0-.69-3.61C13.09-.56,10-.4,6.84,1.6"/><path class="cls-4" d="M8.72,14.8a7.23,7.23,0,0,1-5.41,1.72c.75,0,1.36-.8,1.86-1.92a18.76,18.76,0,0,0,1.05-3.21,5.9,5.9,0,0,0,.2-2.95c-.3-.4-1-.3-1.78.15-.37.21-.87.07-.28-.64A14.28,14.28,0,0,1,8.18,5.23c.93-.27,2,.1,1.64,1.12-.26.75-3.53,9.33-1.09,8.44M11.4,1.48c.44.44.17,1.41-.58,2.17s-1.75,1-2.18.59-.19-1.42.57-2.19S11,1,11.4,1.48Z"/></g></g></svg>