<svg xmlns="http://www.w3.org/2000/svg" viewBox="0 0 90.16 28.06"><defs><style>.cls-1{fill:#004387;}.cls-1,.cls-2,.cls-3{fill-rule:evenodd;}.cls-2{fill:#fff;}.cls-3{fill:#e20613;}</style></defs><title>Asset 24</title><g id="Layer_2" data-name="Layer 2"><g id="Layer_1-2" data-name="Layer 1"><path class="cls-1" d="M16.31,28.06C7.33,28.06,0,21.76,0,14S7.33,0,16.31,0,32.62,6.3,32.62,14s-7.33,14-16.31,14Z"/><path class="cls-2" d="M26.78,15.45l1.82.08c-1.08,7.56-8.25,8.11-11.87.79l.47-.79c3.75,2.37,8.12,3.27,9.57-.08Z"/><polygon class="cls-3" points="14.43 4.45 18.07 3.27 18.23 23.84 14.27 25.18 14.43 4.45 14.43 4.45"/><path class="cls-2" d="M26.85,12.68h1.66C27.88,9.22,26.12,7,22.74,6.75q-4.23.08-7.2,4.91c-1.31,2-3.39,5.1-5.94,5.46-3.06.44-4.84-2.25-3.52-4.57.8-1.41,3-2,4.49-1.86h0a8.83,8.83,0,0,1,3.77,1.16l0-2.92a10.34,10.34,0,0,0-2.06-1.58,5,5,0,0,0-3.21-.53c-4.62,1-5.46,4.79-4.59,9.81,1.79,5.83,7.38,6.28,10.6,2.53,2.2-2.64,7.68-11.54,11.71-6.49Z"/><path class="cls-3" d="M52.88,20.67c3.16,0,5.66-1.83,5.66-5s-2.5-5.16-5.66-5.16-5.66,2-5.66,5.16,2.5,5,5.66,5Zm0-2.33c-1.5,0-2.16-1.33-2.16-2.66,0-1.5.66-2.83,2.16-2.83S55,14.17,55,15.67c0,1.33-.67,2.66-2.16,2.66Zm5.33-5.16H60V17c0,2.33.83,3.66,3.83,3.66.83,0,1.33-.17,2-.17l-.17-2.16c-.33,0-.67.17-1,.17-1,0-1.33-.67-1.33-1.83v-3.5H65.7V10.84H63.36V7.51L60.2,8.68v2.16h-2v2.33ZM77.35,20.5h3.33V15.67h.17l2.66,4.83h4l-3.66-5.33,3.33-4.33H83.51l-2.66,4h-.17V7.51L77.35,8.68V20.5Zm-39,0h3.33V15.67l2.66,4.83h4l-3.5-5.33,3.33-4.33H44.55l-2.83,4V7.51l-3.33,1v12Zm37.8,0A11,11,0,0,1,76,18.17V14.51c0-3-2.16-4-4.66-4a9.78,9.78,0,0,0-3.83.67v2.33a6.74,6.74,0,0,1,3.16-.67c1.17,0,2.16.33,2.16,1.67a4.11,4.11,0,0,0-1.5-.17c-1.83,0-5.16.33-5.16,3.33,0,2.17,1.83,3,3.66,3A3.43,3.43,0,0,0,73,19h0c0,.5.17,1,.17,1.5Zm-6.82-3.16c0-.83,1-1.17,2.16-1.17h1.33a2.22,2.22,0,0,1-2,2.33c-.83,0-1.5-.5-1.5-1.16Z"/><path class="cls-1" d="M88.6,8a1.6,1.6,0,0,1,.77.2,1.44,1.44,0,0,1,.58.58,1.6,1.6,0,0,1,.21.79,1.58,1.58,0,0,1-.21.78,1.45,1.45,0,0,1-.58.58,1.57,1.57,0,0,1-1.56,0,1.46,1.46,0,0,1-.58-.58,1.56,1.56,0,0,1,0-1.56,1.45,1.45,0,0,1,.59-.58A1.61,1.61,0,0,1,88.6,8Zm0,.26a1.33,1.33,0,0,0-.64.17,1.21,1.21,0,0,0-.49.48,1.32,1.32,0,0,0-.18.65,1.31,1.31,0,0,0,.17.65,1.22,1.22,0,0,0,.48.48,1.31,1.31,0,0,0,1.3,0,1.22,1.22,0,0,0,.48-.48,1.31,1.31,0,0,0,0-1.3,1.2,1.2,0,0,0-.49-.48,1.33,1.33,0,0,0-.64-.17Zm-.69,2.17V8.76h.58a1.41,1.41,0,0,1,.43,0,.41.41,0,0,1,.21.16.43.43,0,0,1,.08.25.44.44,0,0,1-.13.32.52.52,0,0,1-.35.15.44.44,0,0,1,.14.09,1.87,1.87,0,0,1,.25.33l.2.33H89l-.15-.26a1.32,1.32,0,0,0-.29-.39.33.33,0,0,0-.22-.06h-.16v.71Zm.27-.95h.33a.53.53,0,0,0,.32-.07.23.23,0,0,0,.09-.19.22.22,0,0,0,0-.13A.25.25,0,0,0,88.77,9a.88.88,0,0,0-.27,0h-.31v.51Z"/></g></g></svg>