<?xml version="1.0" ?><svg style="enable-background:new 0 0 512 512;" version="1.1" viewBox="0 0 512 512" xml:space="preserve" xmlns="http://www.w3.org/2000/svg" xmlns:xlink="http://www.w3.org/1999/xlink"><style type="text/css">
	.st0{fill:#333333;}
</style><g id="Layer_1"/><g id="Layer_2"><g><path class="st0" d="M174.54,81.85c0-8.84-7.16-16-16-16H81.84c-8.84,0-16,7.16-16,16v76.69c0,8.84,7.16,16,16,16h76.69    c8.84,0,16-7.16,16-16V81.85z M142.54,142.54H97.84V97.85h44.69V142.54z"/><path class="st0" d="M217.66,174.54h76.69c8.84,0,16-7.16,16-16V81.85c0-8.84-7.16-16-16-16h-76.69c-8.84,0-16,7.16-16,16v76.69    C201.66,167.37,208.82,174.54,217.66,174.54z M233.66,97.85h44.69v44.69h-44.69V97.85z"/><path class="st0" d="M353.46,174.54h76.69c8.84,0,16-7.16,16-16V81.85c0-8.84-7.16-16-16-16h-76.69c-8.84,0-16,7.16-16,16v76.69    C337.46,167.37,344.63,174.54,353.46,174.54z M369.46,97.85h44.69v44.69h-44.69V97.85z"/><path class="st0" d="M174.54,217.65c0-8.84-7.16-16-16-16H81.84c-8.84,0-16,7.16-16,16v76.69c0,8.84,7.16,16,16,16h76.69    c8.84,0,16-7.16,16-16V217.65z M142.54,278.35H97.84v-44.69h44.69V278.35z"/><path class="st0" d="M201.66,294.35c0,8.84,7.16,16,16,16h76.69c8.84,0,16-7.16,16-16v-76.69c0-8.84-7.16-16-16-16h-76.69    c-8.84,0-16,7.16-16,16V294.35z M233.66,233.65h44.69v44.69h-44.69V233.65z"/><path class="st0" d="M337.46,294.35c0,8.84,7.16,16,16,16h76.69c8.84,0,16-7.16,16-16v-76.69c0-8.84-7.16-16-16-16h-76.69    c-8.84,0-16,7.16-16,16V294.35z M369.46,233.65h44.69v44.69h-44.69V233.65z"/><path class="st0" d="M158.54,337.46H81.84c-8.84,0-16,7.16-16,16v76.69c0,8.84,7.16,16,16,16h76.69c8.84,0,16-7.16,16-16v-76.69    C174.54,344.63,167.37,337.46,158.54,337.46z M142.54,414.15H97.84v-44.69h44.69V414.15z"/><path class="st0" d="M201.66,430.15c0,8.84,7.16,16,16,16h76.69c8.84,0,16-7.16,16-16v-76.69c0-8.84-7.16-16-16-16h-76.69    c-8.84,0-16,7.16-16,16V430.15z M233.66,369.46h44.69v44.69h-44.69V369.46z"/><path class="st0" d="M337.46,430.15c0,8.84,7.16,16,16,16h76.69c8.84,0,16-7.16,16-16v-76.69c0-8.84-7.16-16-16-16h-76.69    c-8.84,0-16,7.16-16,16V430.15z M369.46,369.46h44.69v44.69h-44.69V369.46z"/></g></g></svg>